#!OML:ASF H:\Terrain\Patient Classification 1\Walking\liu\liu.ASF
:FULLY-SPECIFIED
:DEGREES
485
root 16.320900 25.930050 47.420700 6.468960 6.447946 6.993975
lowerback -12.446385 -7.239465 -8.112630
upperback 3.726855 -8.939415 2.171055
thorax 12.015615 -4.820040 5.441325
lowerneck -35.999851 -3.853965 -14.612520
upperneck 34.888649 -4.393020 15.529950
head 17.880899 -1.245898 7.591875
rclavicle 0.000000 0.000000
rhumerus -67.932449 12.996915 -128.271591
rradius 56.451748
rwrist -29.691898
rhand -48.927299 -33.046951
rfingers 10.687531
rthumb -8.768431 -77.895897
lclavicle 0.000000 0.000000
lhumerus -8.585100 -32.618252 123.861305
lradius 49.385704
lwrist 13.013790
lhand -25.623899 -38.698051
lfingers 10.687531
lthumb 13.733399 5.973780
rfemur -60.155548 13.247520 15.140551
rtibia 44.805298
rfoot -33.384449 -9.938625
rtoes -23.606550
lfemur 17.608049 3.617850 -44.334900
ltibia 0.000000
lfoot -20.642399 6.777375
ltoes 3.870405
486
root 16.310551 25.912651 47.634750 6.592200 6.421515 6.759060
lowerback -12.500145 -7.152360 -7.707840
upperback 3.600285 -8.862975 2.137830
thorax 11.851455 -4.756080 5.197215
lowerneck -35.868752 -3.485955 -14.202810
upperneck 35.232899 -4.055130 15.509399
head 17.939251 -1.064204 7.583895
rclavicle 0.000000 -0.000000
rhumerus -68.160904 12.401354 -128.019592
rradius 55.995003
rwrist -29.470499
rhand -46.804199 -35.289299
rfingers 10.687531
rthumb -6.718515 -80.188202
lclavicle 0.000000 -0.000000
lhumerus -9.195630 -33.448200 124.199097
lradius 49.903503
lwrist 12.911190
lhand -25.486950 -38.912251
lfingers 10.687531
lthumb 13.865641 5.753790
rfemur -61.099651 14.569454 14.719786
rtibia 44.037449
rfoot -34.394249 -10.417274
rtoes -24.732450
lfemur 18.248850 3.614835 -43.949402
ltibia 0.000000
lfoot -21.225149 6.796785
ltoes 4.335660
487
root 16.302599 25.887600 47.859451 6.633765 6.349395 7.273065
lowerback -9.808830 -7.102815 -7.859925
upperback 1.299636 -8.933895 2.020635
thorax 7.873875 -4.678470 5.469960
lowerneck -34.118252 -3.564195 -14.394915
upperneck 36.655647 -4.224765 15.059401
head 18.162899 -1.267343 7.452795
rclavicle 0.000000 -0.000000
rhumerus -72.559799 12.704145 -128.338501
rradius 56.256004
rwrist -29.620199
rhand -46.610699 -35.023350
rfingers 10.687531
rthumb -6.531615 -79.926147
lclavicle 0.000000 -0.000000
lhumerus -14.072910 -34.187103 126.369301
lradius 50.475899
lwrist 11.259735
lhand -27.262499 -39.334953
lfingers 10.687531
lthumb 12.152101 5.402145
rfemur -61.698601 15.872400 13.418325
rtibia 43.175251
rfoot -35.593948 -10.668525
rtoes -24.692852
lfemur 19.101000 3.635340 -44.405701
ltibia 0.000000
lfoot -21.860399 6.932355
ltoes 2.968845
488
root 16.285500 25.853851 48.063599 6.866355 6.272625 7.843710
lowerback -8.299470 -7.106595 -8.241510
upperback -0.083840 -9.006240 1.860405
thorax 5.604915 -4.644495 5.697630
lowerneck -32.504398 -3.264645 -14.538885
upperneck 36.995552 -3.943830 15.143701
head 17.942101 -1.182716 7.551450
rclavicle -0.000000 0.000000
rhumerus -75.057755 12.805964 -128.628448
rradius 56.052750
rwrist -29.598602
rhand -46.945648 -33.823051
rfingers 10.687531
rthumb -6.855030 -78.719101
lclavicle -0.000000 0.000000
lhumerus -16.708801 -33.810001 127.433243
lradius 51.526505
lwrist 12.156690
lhand -25.120800 -39.348751
lfingers 10.687531
lthumb 14.218891 5.301420
rfemur -62.547005 17.276249 11.878170
rtibia 42.244801
rfoot -36.502953 -11.117160
rtoes -24.372601
lfemur 19.683149 3.618540 -44.894699
ltibia -0.000000
lfoot -22.217249 7.184610
ltoes 2.179095
